<?xml version="1.0" encoding="UTF-8"?>
<svg xmlns="http://www.w3.org/2000/svg" xmlns:xlink="http://www.w3.org/1999/xlink" width="38.275pt" height="24.669pt" viewBox="0 0 38.275 24.669" version="1.1">
<defs>
<clipPath id="clip1">
  <path d="M 0 0 L 24 0 L 24 24 L 0 24 Z M 0 0 "/>
</clipPath>
<clipPath id="clip2">
  <path d="M 0.996094 23.671875 L 0.996094 0.996094 L 37.28125 0.996094 L 37.28125 23.671875 Z M 37.28125 12.335938 C 37.28125 6.070312 32.203125 0.996094 25.941406 0.996094 C 19.679688 0.996094 14.601562 6.070312 14.601562 12.335938 C 14.601562 18.597656 19.679688 23.671875 25.941406 23.671875 C 32.203125 23.671875 37.28125 18.597656 37.28125 12.335938 Z M 37.28125 12.335938 "/>
</clipPath>
<clipPath id="clip3">
  <path d="M 14 0 L 24 0 L 24 24 L 14 24 Z M 14 0 "/>
</clipPath>
<clipPath id="clip4">
  <path d="M 37.28125 12.335938 C 37.28125 6.070312 32.203125 0.996094 25.941406 0.996094 C 19.679688 0.996094 14.601562 6.070312 14.601562 12.335938 C 14.601562 18.597656 19.679688 23.671875 25.941406 23.671875 C 32.203125 23.671875 37.28125 18.597656 37.28125 12.335938 Z M 37.28125 12.335938 "/>
</clipPath>
<clipPath id="clip5">
  <path d="M 14 0 L 38 0 L 38 24 L 14 24 Z M 14 0 "/>
</clipPath>
<clipPath id="clip6">
  <path d="M 0.996094 23.671875 L 0.996094 0.996094 L 37.28125 0.996094 L 37.28125 23.671875 Z M 23.671875 12.335938 C 23.671875 6.070312 18.597656 0.996094 12.335938 0.996094 C 6.074219 0.996094 0.996094 6.070312 0.996094 12.335938 C 0.996094 18.597656 6.074219 23.671875 12.335938 23.671875 C 18.597656 23.671875 23.671875 18.597656 23.671875 12.335938 Z M 23.671875 12.335938 "/>
</clipPath>
<clipPath id="clip7">
  <path d="M 0 0 L 38.273438 0 L 38.273438 24.667969 L 0 24.667969 Z M 0 0 "/>
</clipPath>
</defs>
<g id="surface1">
<g clip-path="url(#clip1)" clip-rule="nonzero">
<g clip-path="url(#clip2)" clip-rule="nonzero">
<path style=" stroke:none;fill-rule:nonzero;fill:rgb(100%,100%,100%);fill-opacity:1;" d="M 23.671875 12.335938 C 23.671875 6.070312 18.597656 0.996094 12.335938 0.996094 C 6.074219 0.996094 0.996094 6.070312 0.996094 12.335938 C 0.996094 18.597656 6.074219 23.671875 12.335938 23.671875 C 18.597656 23.671875 23.671875 18.597656 23.671875 12.335938 Z M 23.671875 12.335938 "/>
</g>
</g>
<g clip-path="url(#clip3)" clip-rule="nonzero">
<g clip-path="url(#clip4)" clip-rule="nonzero">
<path style=" stroke:none;fill-rule:nonzero;fill:rgb(100%,0%,0%);fill-opacity:1;" d="M 23.671875 12.335938 C 23.671875 6.070312 18.597656 0.996094 12.335938 0.996094 C 6.074219 0.996094 0.996094 6.070312 0.996094 12.335938 C 0.996094 18.597656 6.074219 23.671875 12.335938 23.671875 C 18.597656 23.671875 23.671875 18.597656 23.671875 12.335938 Z M 23.671875 12.335938 "/>
</g>
</g>
<g clip-path="url(#clip5)" clip-rule="nonzero">
<g clip-path="url(#clip6)" clip-rule="nonzero">
<path style=" stroke:none;fill-rule:nonzero;fill:rgb(100%,0%,0%);fill-opacity:1;" d="M 37.28125 12.335938 C 37.28125 6.070312 32.203125 0.996094 25.941406 0.996094 C 19.679688 0.996094 14.601562 6.070312 14.601562 12.335938 C 14.601562 18.597656 19.679688 23.671875 25.941406 23.671875 C 32.203125 23.671875 37.28125 18.597656 37.28125 12.335938 Z M 37.28125 12.335938 "/>
</g>
</g>
<g clip-path="url(#clip7)" clip-rule="nonzero">
<path style="fill:none;stroke-width:1.99255;stroke-linecap:butt;stroke-linejoin:miter;stroke:rgb(0%,0%,0%);stroke-opacity:1;stroke-miterlimit:10;" d="M 24.94625 -0.0019375 C 24.94625 6.263687 19.868125 11.337906 13.606406 11.337906 C 7.344687 11.337906 2.266562 6.263687 2.266562 -0.0019375 C 2.266562 -6.263656 7.344687 -11.337875 13.606406 -11.337875 C 19.868125 -11.337875 24.94625 -6.263656 24.94625 -0.0019375 Z M 11.336875 -0.0019375 C 11.336875 6.263687 6.262656 11.337906 0.0009375 11.337906 C -6.260781 11.337906 -11.338906 6.263687 -11.338906 -0.0019375 C -11.338906 -6.263656 -6.260781 -11.337875 0.0009375 -11.337875 C 6.262656 -11.337875 11.336875 -6.263656 11.336875 -0.0019375 Z M 11.336875 -0.0019375 " transform="matrix(1,0,0,-1,12.335,12.334)"/>
</g>
</g>
</svg>
